<svg width="40" height="40" viewBox="0 0 40 40" fill="none" xmlns="http://www.w3.org/2000/svg">
<path fill-rule="evenodd" clip-rule="evenodd" d="M22.4999 7.75V13V13.5833C22.4999 13.91 22.2433 14.1667 21.9166 14.1667H18.4167H18.4166H17.25C16.935 14.1667 16.6667 14.4233 16.6667 14.75V16.5H23.6667H23.6667V14.75C23.6667 14.4233 23.3984 14.1667 23.0834 14.1667H21.9167C22.2434 14.1667 22.5001 13.91 22.5001 13.5833V13H23.0834C24.0517 13 24.8334 13.7817 24.8334 14.75V16.5H25.4167C27.0267 16.5 28.3333 17.8067 28.3333 19.4167V21.74L28.3334 21.75V29.9167C28.3334 29.92 28.3334 29.9234 28.3333 29.9267V32.25C28.3333 33.2183 27.5517 34 26.5833 34H13.75C12.7817 34 12 33.2183 12 32.25V19.4167C12 17.8067 13.3067 16.5 14.9167 16.5H15.5V14.75C15.5 13.7817 16.2817 13 17.25 13H17.8333V7.75C17.8333 6.78167 18.6149 6 19.5833 6H20.7499C21.7183 6 22.4999 6.78167 22.4999 7.75ZM16.0833 17.6667H14.9167C13.9483 17.6667 13.1667 18.4483 13.1667 19.4167V32.25C13.1667 32.5767 13.4233 32.8333 13.75 32.8333H26.5833C26.8983 32.8333 27.1667 32.5767 27.1667 32.25V30.5H27.1667V29.3334V22.3334V21.1667H27.7501C27.7853 21.1667 27.8198 21.1697 27.8532 21.1754C27.8197 21.1697 27.7853 21.1667 27.75 21.1667H27.1667V19.4167C27.1667 18.4483 26.385 17.6667 25.4167 17.6667H24.25H16.0833ZM21.3333 7.75V13H18.9999V7.75C18.9999 7.42333 19.2683 7.16667 19.5833 7.16667H20.7499C21.0649 7.16667 21.3333 7.42333 21.3333 7.75ZM19.5833 30.5H27.1666V29.3334H19.5833C19.2683 29.3334 18.9999 29.0767 18.9999 28.75V22.9167C18.9999 22.59 19.2683 22.3334 19.5833 22.3334H27.1666V21.1667H19.5833C18.6149 21.1667 17.8333 21.9484 17.8333 22.9167V28.75C17.8333 29.7184 18.6149 30.5 19.5833 30.5Z" fill="white"/>
</svg>
