<svg width="40" height="40" viewBox="0 0 40 40" fill="none" xmlns="http://www.w3.org/2000/svg">
<path fill-rule="evenodd" clip-rule="evenodd" d="M22.8125 6H34.125C35.1589 6 36 6.81912 36 7.82609V32.1739C36 33.1809 35.1589 34 34.125 34H5.875C4.84106 34 4 33.1809 4 32.1739V7.82609C4 6.81912 4.84106 6 5.875 6H17.1875C17.5327 6 17.8125 6.27249 17.8125 6.6087C17.8125 6.9449 17.5327 7.21739 17.1875 7.21739H5.875C5.53027 7.21739 5.25 7.49035 5.25 7.82609V10.8696H34.75V7.82609C34.75 7.49035 34.4697 7.21739 34.125 7.21739H22.8125C22.4673 7.21739 22.1875 6.9449 22.1875 6.6087C22.1875 6.27249 22.4673 6 22.8125 6ZM5.25 32.1739C5.25 32.5096 5.53027 32.7826 5.875 32.7826H34.125C34.4697 32.7826 34.75 32.5096 34.75 32.1739V12.087H5.25V32.1739ZM20.625 6.6087C20.625 6.9449 20.3452 7.21739 20 7.21739C19.6548 7.21739 19.375 6.9449 19.375 6.6087C19.375 6.27249 19.6548 6 20 6C20.3452 6 20.625 6.27249 20.625 6.6087ZM9.375 9.04348C9.375 9.37969 9.09521 9.65217 8.75 9.65217C8.40479 9.65217 8.125 9.37969 8.125 9.04348C8.125 8.70727 8.40479 8.43478 8.75 8.43478C9.09521 8.43478 9.375 8.70727 9.375 9.04348ZM11.25 9.65217C11.5952 9.65217 11.875 9.37969 11.875 9.04348C11.875 8.70727 11.5952 8.43478 11.25 8.43478C10.9048 8.43478 10.625 8.70727 10.625 9.04348C10.625 9.37969 10.9048 9.65217 11.25 9.65217ZM13.75 9.65217C14.0952 9.65217 14.375 9.37969 14.375 9.04348C14.375 8.70727 14.0952 8.43478 13.75 8.43478C13.4048 8.43478 13.125 8.70727 13.125 9.04348C13.125 9.37969 13.4048 9.65217 13.75 9.65217ZM31.25 14.5217C31.5952 14.5217 31.875 14.7942 31.875 15.1304V18.7826C31.875 19.1188 31.5952 19.3913 31.25 19.3913H8.75C8.40479 19.3913 8.125 19.1188 8.125 18.7826V15.1304C8.125 14.7942 8.40479 14.5217 8.75 14.5217H31.25ZM30.625 18.1739V15.7391H9.375V18.1739H30.625ZM8.75 21.8261C8.40479 21.8261 8.125 22.0986 8.125 22.4348V29.7391C8.125 30.0753 8.40479 30.3478 8.75 30.3478H20C20.3452 30.3478 20.625 30.0753 20.625 29.7391V22.4348C20.625 22.0986 20.3452 21.8261 20 21.8261H8.75ZM9.375 29.1304V23.0435H19.375V29.1304H9.375ZM23.75 21.8261H31.25C31.5952 21.8261 31.875 22.0986 31.875 22.4348V29.7391C31.875 30.0753 31.5952 30.3478 31.25 30.3478H23.75C23.4048 30.3478 23.125 30.0753 23.125 29.7391V22.4348C23.125 22.0986 23.4048 21.8261 23.75 21.8261ZM24.375 29.1304H30.625V23.0435H24.375V29.1304Z" fill="#333333"/>
</svg>
