<svg width="40" height="40" viewBox="0 0 40 40" fill="none" xmlns="http://www.w3.org/2000/svg">
<path fill-rule="evenodd" clip-rule="evenodd" d="M33.2563 29.6598L32.0987 28.5023C31.8851 28.2888 31.5388 28.2888 31.3253 28.5023C31.1117 28.7159 31.1117 29.0622 31.3253 29.2758L32.4829 30.4333C32.7566 30.7071 32.9074 31.071 32.9074 31.4581C32.9074 31.8453 32.7567 32.2092 32.483 32.4829C31.9178 33.048 30.9984 33.0481 30.4333 32.4829L26.0348 28.0843L28.0843 26.0347L28.6182 26.5686C28.8318 26.7821 29.178 26.7821 29.3917 26.5686C29.6052 26.355 29.6052 26.0087 29.3917 25.7951L27.0686 23.472C26.8053 23.2087 26.4552 23.0637 26.0829 23.0637C25.7105 23.0637 25.3604 23.2087 25.0971 23.472L24.6713 23.8977L22.9907 22.2171C24.5313 20.4945 25.4696 18.2223 25.4696 15.7348C25.4696 10.367 21.1025 6 15.7348 6C10.367 6 6 10.367 6 15.7348C6 21.1026 10.367 25.4696 15.7348 25.4696C18.2223 25.4696 20.4945 24.5313 22.2172 22.9906L23.8979 24.6713L23.4721 25.0971C23.2088 25.3604 23.0638 25.7105 23.0638 26.0828C23.0638 26.4552 23.2088 26.8052 23.4721 27.0685L24.8741 28.4705L24.8745 28.471L24.875 28.4714L29.6599 33.2563C30.1556 33.752 30.8069 34 31.4581 34C32.1093 34 32.7605 33.7521 33.2563 33.2563C34.2479 32.2647 34.2479 30.6514 33.2563 29.6598ZM15.7348 24.3758C10.9701 24.3758 7.0938 20.4994 7.0938 15.7348C7.0938 10.9701 10.9701 7.0938 15.7348 7.0938C20.4995 7.0938 24.3758 10.9701 24.3758 15.7348C24.3758 20.4994 20.4995 24.3758 15.7348 24.3758ZM24.2455 26.2951C24.1888 26.2383 24.1576 26.1629 24.1576 26.0828C24.1576 26.0026 24.1888 25.9272 24.2455 25.8705L25.8705 24.2455C25.9272 24.1888 26.0026 24.1576 26.0828 24.1576C26.1629 24.1576 26.2384 24.1888 26.2951 24.2455L27.3108 25.2613L25.2613 27.3108L24.2455 26.2951ZM9.16111 13.9703C9.89915 11.0893 12.5175 8.95326 15.6254 8.95326C19.3044 8.95326 22.2976 11.9464 22.2976 15.6254C22.2976 19.3045 19.3044 22.2976 15.6254 22.2976C11.9464 22.2976 8.95323 19.3045 8.95323 15.6254C8.95323 15.0704 9.02181 14.5312 9.15012 14.0153C9.15307 14 9.1569 13.9851 9.16111 13.9703ZM14.5453 18.9752C14.5453 18.6731 14.7901 18.4283 15.0922 18.4283H20.4468C20.9277 17.6042 21.2038 16.6465 21.2038 15.6254C21.2038 14.8136 21.0294 14.0418 20.7161 13.3453H16.8288C16.5267 13.3453 16.2819 13.1004 16.2819 12.7984C16.2819 12.4963 16.5267 12.2515 16.8288 12.2515H20.0646C19.0447 10.9128 17.4344 10.0471 15.6254 10.0471C13.2737 10.0471 11.2574 11.5098 10.4382 13.5732H12.511C12.965 13.5732 13.3887 13.7972 13.6444 14.1724C13.9001 14.5475 13.9537 15.0237 13.7878 15.4463L13.7496 15.5433C13.7029 15.6623 13.7478 15.7561 13.7787 15.8014C13.8096 15.8467 13.8805 15.9228 14.0083 15.9228H16.0769C16.379 15.9228 16.6238 16.1676 16.6238 16.4697C16.6238 16.7717 16.379 17.0166 16.0769 17.0166H14.0083C13.5543 17.0166 13.1306 16.7926 12.8749 16.4174C12.6191 16.0423 12.5656 15.5661 12.7315 15.1435L12.7697 15.0465C12.8164 14.9275 12.7715 14.8337 12.7406 14.7884C12.7098 14.7431 12.6388 14.667 12.5111 14.667H10.1297C10.0755 14.9785 10.047 15.2987 10.047 15.6254C10.047 18.7013 12.5495 21.2038 15.6254 21.2038C17.1865 21.2038 18.5995 20.559 19.613 19.5221H15.0922C14.7901 19.5221 14.5453 19.2772 14.5453 18.9752ZM30.372 27.0019C30.5158 27.0019 30.6569 27.0605 30.7586 27.1622C30.8609 27.2639 30.9189 27.405 30.9189 27.5488C30.9189 27.6933 30.8609 27.8338 30.7586 27.9361C30.6569 28.0378 30.5158 28.0957 30.372 28.0957C30.2281 28.0957 30.087 28.0378 29.9853 27.9361C29.8836 27.8338 29.8251 27.6927 29.8251 27.5488C29.8251 27.405 29.8836 27.2645 29.9853 27.1622C30.087 27.0605 30.2281 27.0019 30.372 27.0019ZM14.843 28.4648C14.8653 28.4687 14.8876 28.4736 14.9098 28.4804C16.502 28.9718 16.8362 29.6723 16.8361 30.1735C16.8361 30.9742 16.0112 31.5386 14.8402 31.8877C14.6612 32.2459 14.4235 32.5821 14.1251 32.8805C13.3788 33.6268 12.3984 33.9999 11.4181 33.9999C10.4378 33.9999 9.45738 33.6268 8.71109 32.8805C8.41581 32.5852 8.17578 32.2497 7.99383 31.8871C6.82401 31.5379 6 30.9738 6 30.1735C6 29.6833 6.32081 28.9958 7.84912 28.5048C7.89375 28.4904 7.93886 28.4828 7.9836 28.48C8.1667 28.1096 8.41029 27.7672 8.71103 27.4664C9.43414 26.7434 10.3955 26.3452 11.4181 26.3452C12.4407 26.3452 13.402 26.7434 14.1251 27.4664C14.425 27.7663 14.6636 28.1044 14.843 28.4648ZM7.0938 30.1742C7.09921 30.2153 7.21592 30.3809 7.61094 30.5749C7.59722 30.4424 7.58983 30.3085 7.58983 30.1735C7.58983 30.0385 7.59722 29.9047 7.61094 29.7722C7.21576 29.9665 7.09921 30.1324 7.0938 30.1742ZM11.4181 32.3242C10.8089 32.3242 10.1889 32.2875 9.59635 32.2125C10.6308 33.1377 12.2054 33.1376 13.2398 32.2125C12.6472 32.2875 12.0273 32.3242 11.4181 32.3242ZM11.4181 31.2304C12.3673 31.2304 13.2728 31.1379 14.0342 30.9668C14.3158 30.0327 14.0884 28.9767 13.3516 28.2399C12.8351 27.7233 12.1485 27.439 11.4181 27.439C10.6877 27.439 10.001 27.7234 9.48451 28.2399C8.74773 28.9767 8.52038 30.0327 8.80192 30.9668C9.56337 31.1379 10.4688 31.2304 11.4181 31.2304ZM15.2229 29.7708C15.251 30.0385 15.251 30.3084 15.2229 30.576C15.6198 30.3815 15.737 30.215 15.7424 30.1727C15.7369 30.1309 15.619 29.9649 15.2229 29.7708ZM30.6104 6C28.7407 6 27.2196 7.52109 27.2196 9.39077C27.2196 11.2605 28.7407 12.7815 30.6104 12.7815C32.4801 12.7815 34.0011 11.2605 34.0011 9.39077C34.0011 7.52109 32.4801 6 30.6104 6ZM30.6104 11.6877C29.3438 11.6877 28.3134 10.6573 28.3134 9.39077C28.3134 8.12421 29.3438 7.0938 30.6104 7.0938C31.8769 7.0938 32.9073 8.12421 32.9073 9.39077C32.9073 10.6573 31.8769 11.6877 30.6104 11.6877ZM30.8877 17.817L32.6915 19.6208C32.905 19.8344 32.905 20.1807 32.6914 20.3943L30.8877 22.198C30.7851 22.3005 30.646 22.3582 30.501 22.3582C30.3559 22.3582 30.2168 22.3005 30.1143 22.198L28.3105 20.3943C28.097 20.1806 28.097 19.8343 28.3105 19.6208L30.1143 17.817C30.3279 17.6035 30.6742 17.6035 30.8877 17.817ZM29.4707 20.0075L30.501 21.0378L31.5313 20.0075L30.501 18.9772L29.4707 20.0075ZM18.5841 16.0831C18.4824 15.9808 18.3413 15.9229 18.1975 15.9229C18.0531 15.9229 17.912 15.9808 17.8103 16.0831C17.7085 16.1848 17.6506 16.3254 17.6506 16.4698C17.6506 16.6136 17.7085 16.7547 17.8103 16.8564C17.9125 16.9581 18.0531 17.0167 18.1975 17.0167C18.3413 17.0167 18.4824 16.9581 18.5841 16.8564C18.6859 16.7547 18.7444 16.6136 18.7444 16.4698C18.7444 16.3254 18.6859 16.1849 18.5841 16.0831ZM21.3132 30.337C21.457 30.337 21.5981 30.3955 21.6998 30.4972C21.8015 30.5989 21.8601 30.74 21.8601 30.8839C21.8601 31.0277 21.8015 31.1688 21.6998 31.2705C21.5981 31.3723 21.457 31.4308 21.3132 31.4308C21.1693 31.4308 21.0282 31.3722 20.9265 31.2705C20.8248 31.1688 20.7663 31.0277 20.7663 30.8839C20.7663 30.74 20.8248 30.5989 20.9265 30.4972C21.0282 30.3954 21.1693 30.337 21.3132 30.337ZM29.3017 14.9079C29.2 14.8062 29.0589 14.7482 28.915 14.7482C28.7712 14.7482 28.6301 14.8062 28.5284 14.9079C28.4267 15.0101 28.3681 15.1512 28.3681 15.2951C28.3681 15.4389 28.4267 15.58 28.5284 15.6817C28.6301 15.7835 28.7712 15.842 28.915 15.842C29.0589 15.842 29.2 15.7834 29.3017 15.6817C29.4034 15.58 29.4619 15.4389 29.4619 15.2951C29.4619 15.1512 29.4034 15.0101 29.3017 14.9079ZM33.1299 25.0113C33.2738 25.0113 33.4149 25.0698 33.5166 25.1715C33.6183 25.2732 33.6768 25.4143 33.6768 25.5582C33.6768 25.702 33.6183 25.8431 33.5166 25.9448C33.4149 26.047 33.2738 26.1051 33.1299 26.1051C32.9861 26.1051 32.845 26.047 32.7427 25.9448C32.641 25.8431 32.583 25.7026 32.583 25.5582C32.583 25.4143 32.641 25.2732 32.7427 25.1715C32.845 25.0697 32.9856 25.0113 33.1299 25.0113Z" fill="white"/>
</svg>
