<svg width="40" height="40" viewBox="0 0 40 40" fill="none" xmlns="http://www.w3.org/2000/svg">
<path fill-rule="evenodd" clip-rule="evenodd" d="M25.379 10.6667H26.8C28.862 10.6667 30.5333 12.3381 30.5333 14.4C30.5333 16.462 28.862 18.1333 26.8 18.1333H21.6667V17.2H26.8C28.3463 17.2 29.6 15.9463 29.6 14.4C29.6 12.8537 28.3463 11.6 26.8 11.6H24.4667V11.1333C24.4667 8.81367 22.5863 6.93333 20.2667 6.93333C17.947 6.93333 16.0667 8.81367 16.0667 11.1333V11.6H13.7333C12.187 11.6 10.9333 12.8537 10.9333 14.4C10.9333 15.9463 12.187 17.2 13.7333 17.2H18.8667V18.1333H13.7333C11.6714 18.1333 10 16.462 10 14.4C10 12.3381 11.6714 10.6667 13.7333 10.6667H15.1543C15.3958 8.02344 17.6123 6 20.2667 6C22.9211 6 25.1375 8.02344 25.379 10.6667ZM26.3333 22.2474V23.2667H27.2667C28.0396 23.2676 28.6658 23.8937 28.6667 24.6667V32.6C28.6658 33.3729 28.0396 33.9991 27.2667 34H22.6C21.8271 33.9991 21.2009 33.3729 21.2 32.6V24.6667C21.2009 23.8937 21.8271 23.2676 22.6 23.2667H25.4V22.2472C25.0047 22.1064 24.6936 21.7953 24.5526 21.4H15.9808C15.8397 21.7953 15.5287 22.1064 15.1333 22.2474V23.7333H17.9333C18.7063 23.7342 19.3324 24.3604 19.3333 25.1333V30.7333C19.3324 31.5062 18.7063 32.1324 17.9333 32.1333H15.1333V33.0667H16.5333V34H12.8V33.0667H14.2V32.1333H11.4C10.6271 32.1324 10.0009 31.5062 10 30.7333V25.1333C10.0009 24.3604 10.6271 23.7342 11.4 23.7333H14.2V22.2472C13.5859 22.0314 13.2024 21.4196 13.2756 20.7727C13.3487 20.1258 13.8593 19.6154 14.5063 19.5422C15.1532 19.4688 15.7647 19.8526 15.9808 20.4667H19.8V14.5932L18.73 15.6633L18.0701 15.0034L20.2667 12.8068L22.4633 15.0034L21.8034 15.6633L20.7333 14.5932V20.4667H24.5526C24.7686 19.8526 25.3802 19.4691 26.0271 19.5422C26.674 19.6154 27.1846 20.126 27.2578 20.7729C27.3309 21.4198 26.9474 22.0314 26.3333 22.2474ZM10.9333 30.7333C10.9336 30.991 11.1423 31.1998 11.4 31.2H17.9333C18.1911 31.1998 18.3998 30.991 18.4 30.7333V29.8H10.9333V30.7333ZM18.4 28.8667V25.1333C18.3998 24.8756 18.1911 24.6669 17.9333 24.6667H11.4C11.1423 24.6669 10.9336 24.8756 10.9333 25.1333V28.8667H18.4ZM26.3333 20.9333C26.3333 20.6756 26.1244 20.4667 25.8667 20.4667C25.609 20.4669 25.4002 20.6756 25.4 20.9333C25.4 21.191 25.609 21.4 25.8667 21.4C26.1244 21.4 26.3333 21.191 26.3333 20.9333ZM14.2 20.9333C14.2 21.191 14.409 21.4 14.6667 21.4C14.9244 21.3998 15.1331 21.191 15.1333 20.9333C15.1333 20.6756 14.9244 20.4667 14.6667 20.4667C14.409 20.4667 14.2 20.6756 14.2 20.9333ZM27.2667 24.2H22.6C22.3423 24.2002 22.1336 24.4089 22.1333 24.6667V30.7333H27.7333V24.6667C27.7331 24.4089 27.5244 24.2002 27.2667 24.2ZM22.6 33.0667H27.2667C27.5244 33.0664 27.7331 32.8577 27.7333 32.6V31.6667H22.1333V32.6C22.1336 32.8577 22.3423 33.0664 22.6 33.0667Z" fill="white"/>
</svg>
